Coordinates
version=1
nRows=74
nColumns=11
inDegrees=no

Units are S.I. units (second, meters, Newtons, ...)
If the header above contains a line with 'inDegrees', this indicates whether rotational values are in degrees (yes) or radians (no).

endheader
time	pelvis_tilt	pelvis_tx	pelvis_ty	hip_flexion_r	knee_angle_r	ankle_angle_r	hip_flexion_l	knee_angle_l	ankle_angle_l	lumbar_extension
210.01	0.0615234	0.309603	0.888529	-0.233294	-0.802268	0.0204196	0.343286	-0.414196	-0.023681	0
210.02	0.063186	0.310752	0.889608	-0.206591	-0.861052	-0.0376131	0.336893	-0.437585	-0.00412159	0
210.03	0.0639493	0.311573	0.890668	-0.176686	-0.918827	-0.0983837	0.327105	-0.453106	0.0174877	0
210.04	0.0625099	0.31206	0.891474	-0.143266	-0.972884	-0.15772	0.320233	-0.467849	0.0417382	0
210.05	0.0901007	0.3155	0.893602	-0.147887	-1.02342	-0.205397	0.277083	-0.485779	0.0632251	0
210.06	0.0635297	0.312785	0.894295	-0.0854381	-1.06109	-0.238763	0.294026	-0.482033	0.0857323	0
210.07	0.063659	0.312958	0.896578	-0.0572379	-1.10008	-0.228442	0.278735	-0.484095	0.101749	0
210.08	0.0623479	0.312569	0.89913	-0.0264751	-1.13717	-0.190027	0.265267	-0.484987	0.113266	0
210.09	0.0612164	0.312092	0.901968	0.00363731	-1.1677	-0.146251	0.250555	-0.483897	0.123626	0
210.1	0.0610408	0.31175	0.9052	0.0312637	-1.18799	-0.109619	0.231128	-0.476004	0.129762	0
210.11	0.0608914	0.311378	0.908594	0.0579962	-1.20029	-0.0818749	0.210138	-0.464461	0.13305	0
210.12	0.0598433	0.310751	0.911865	0.0860301	-1.20762	-0.0642117	0.188166	-0.449194	0.13547	0
210.13	0.0569705	0.309524	0.914986	0.116864	-1.21121	-0.0511677	0.168757	-0.433682	0.138889	0
210.14	0.045235	0.306679	0.91786	0.158984	-1.21078	-0.0387687	0.157337	-0.411037	0.136841	0
210.15	0.0548908	0.307395	0.921721	0.165322	-1.19611	-0.0263188	0.120272	-0.395391	0.138682	0
210.16	0.0532885	0.306301	0.924436	0.189028	-1.18205	-0.0107804	0.0960186	-0.372935	0.141245	0
210.17	0.0511289	0.305197	0.926884	0.211788	-1.16313	0.00515093	0.0737585	-0.353591	0.14446	0
210.18	0.0490885	0.304053	0.929278	0.232039	-1.13784	0.0212085	0.0525973	-0.335926	0.146583	0
210.19	0.0467788	0.302419	0.931306	0.253079	-1.10923	0.0353643	0.0351198	-0.32148	0.146223	0
210.2	0.0416729	0.300131	0.933016	0.275052	-1.07475	0.0491223	0.02021	-0.305682	0.144294	0
210.21	0.0379353	0.298494	0.934143	0.293477	-1.03698	0.0666738	0.00272074	-0.290976	0.149163	0
210.22	0.0340014	0.296991	0.935104	0.309311	-0.992432	0.0790755	-0.0147903	-0.274606	0.152196	0
210.23	0.0292406	0.295224	0.935688	0.324319	-0.942617	0.0821358	-0.0272293	-0.265232	0.153429	0
210.24	0.0242681	0.293353	0.935916	0.336458	-0.886416	0.0820284	-0.0379746	-0.259078	0.154007	0
210.25	0.0212417	0.292275	0.936137	0.342043	-0.823345	0.0794298	-0.0525308	-0.251793	0.156501	0
210.26	0.0188264	0.291393	0.936111	0.345176	-0.757836	0.0712224	-0.0693993	-0.242059	0.160577	0
210.27	0.0174682	0.290749	0.93558	0.346548	-0.692634	0.0590585	-0.0878576	-0.231347	0.169741	0
210.28	0.0140343	0.289544	0.93461	0.348602	-0.625574	0.0438026	-0.102453	-0.223236	0.178866	0
210.29	0.0107856	0.288443	0.933327	0.348262	-0.555983	0.0269997	-0.115196	-0.219373	0.189255	0
210.3	0.008421	0.287894	0.931738	0.346675	-0.488824	0.0178263	-0.130458	-0.214101	0.200866	0
210.31	0.00670172	0.287442	0.929817	0.344777	-0.425149	0.0157673	-0.144761	-0.212786	0.213389	0
210.32	0.00642002	0.287359	0.927671	0.340698	-0.363719	0.0157841	-0.161494	-0.211047	0.227583	0
210.33	0.00683591	0.287639	0.925322	0.334174	-0.302787	0.0188073	-0.181217	-0.205976	0.240026	0
210.34	-0.00672335	0.285385	0.922071	0.346462	-0.246919	0.0221882	-0.182106	-0.202123	0.249713	0
210.35	0.00340383	0.287457	0.919957	0.329758	-0.197136	0.0258456	-0.209833	-0.206338	0.265852	0
210.36	0.00510428	0.28829	0.917089	0.323612	-0.152558	0.0363265	-0.229718	-0.204549	0.277685	0
210.37	-0.00662501	0.286881	0.913707	0.336576	-0.11685	0.0404872	-0.231948	-0.203047	0.282249	0
210.38	0.00544026	0.289539	0.911748	0.320002	-0.0891414	0.0501457	-0.261525	-0.210307	0.295673	0
210.39	0.00723135	0.290476	0.908981	0.318248	-0.070491	0.0603312	-0.277095	-0.218565	0.3113	0
210.4	0.00803579	0.291025	0.90614	0.319659	-0.0634148	0.0676983	-0.289874	-0.228099	0.321749	0
210.41	0.00888884	0.291812	0.90333	0.32285	-0.0679147	0.0741185	-0.300183	-0.243236	0.329325	0
210.42	0.0102344	0.292756	0.900684	0.326387	-0.0814915	0.0743745	-0.309625	-0.261618	0.335507	0
210.43	0.0103634	0.293314	0.898321	0.331548	-0.102355	0.0599885	-0.316136	-0.282501	0.336584	0
210.44	0.012814	0.294836	0.896248	0.335424	-0.129947	0.0255619	-0.320109	-0.312047	0.337151	0
210.45	0.00899304	0.295328	0.893937	0.344396	-0.157381	-0.0164426	-0.31717	-0.341218	0.335353	0
210.46	0.0145545	0.297367	0.892005	0.341643	-0.186445	-0.0529183	-0.324695	-0.37392	0.331204	0
210.47	0.0165424	0.299303	0.890145	0.343772	-0.214904	-0.0908482	-0.323156	-0.413355	0.31982	0
210.48	0.0186549	0.301058	0.88877	0.347552	-0.247885	-0.111754	-0.317169	-0.458657	0.298253	0
210.49	0.0206806	0.302591	0.887953	0.355146	-0.292097	-0.104199	-0.305534	-0.511061	0.266598	0
210.5	0.0229405	0.304017	0.887813	0.361924	-0.340138	-0.0755802	-0.288432	-0.570045	0.221421	0
210.51	0.0247917	0.305078	0.888154	0.36644	-0.384015	-0.045085	-0.265201	-0.634223	0.162772	0
210.52	0.0257512	0.305699	0.888893	0.368117	-0.419048	-0.0220454	-0.236142	-0.701993	0.0976563	0
210.53	0.0260829	0.306178	0.889687	0.36672	-0.446997	0.00114567	-0.203048	-0.771109	0.0354401	0
210.54	0.0264681	0.30678	0.890559	0.360577	-0.467049	0.0246482	-0.168217	-0.839829	-0.0229244	0
210.55	0.0280094	0.307292	0.89179	0.34854	-0.4794	0.0495219	-0.133516	-0.905188	-0.088816	0
210.56	0.0302639	0.30768	0.893205	0.335272	-0.490036	0.0720304	-0.0986197	-0.965172	-0.164659	0
210.57	0.0303904	0.307732	0.89461	0.324073	-0.498235	0.0913414	-0.0605353	-1.01783	-0.249582	0
210.58	0.0293905	0.307582	0.89616	0.310359	-0.500035	0.108073	-0.0235239	-1.06118	-0.333606	0
210.59	0.0294237	0.307335	0.89808	0.29322	-0.498193	0.120082	0.0118914	-1.10034	-0.397718	0
210.6	0.0306038	0.307199	0.900521	0.275454	-0.496721	0.130944	0.0458467	-1.13741	-0.426419	0
210.61	0.0322677	0.306662	0.903394	0.254532	-0.490215	0.142756	0.0781686	-1.17209	-0.419828	0
210.62	0.0330887	0.30608	0.906074	0.23362	-0.481817	0.153539	0.109679	-1.20149	-0.383598	0
210.63	0.034656	0.305555	0.908856	0.211478	-0.472423	0.161564	0.137583	-1.22094	-0.32998	0
210.64	0.0365159	0.30507	0.911755	0.186692	-0.45862	0.169566	0.164141	-1.23267	-0.274434	0
210.65	0.0381241	0.304469	0.914605	0.162316	-0.443868	0.176827	0.190838	-1.24016	-0.222169	0
210.66	0.0389924	0.3035	0.917108	0.139697	-0.430176	0.178057	0.218556	-1.24284	-0.177989	0
210.67	0.0402294	0.302491	0.919676	0.114482	-0.412459	0.176642	0.242335	-1.23724	-0.132376	0
210.68	0.0437525	0.301901	0.922319	0.0861558	-0.394658	0.182139	0.26067	-1.22321	-0.0925927	0
210.69	0.0442289	0.300824	0.924192	0.062449	-0.377429	0.192868	0.283005	-1.2046	-0.0664936	0
210.7	0.0421809	0.298947	0.925636	0.0449607	-0.36562	0.196163	0.307792	-1.1804	-0.0533187	0
210.71	0.0398862	0.297205	0.927018	0.0292132	-0.356065	0.19667	0.330802	-1.15061	-0.040389	0
210.72	0.0377682	0.295681	0.928136	0.0129508	-0.34584	0.197765	0.350943	-1.11547	-0.0261335	0
210.73	0.0369696	0.294584	0.929024	-0.00622686	-0.333711	0.205654	0.365524	-1.07334	-0.0168257	0
210.74	0.0352193	0.293376	0.929375	-0.0221946	-0.326229	0.213922	0.378452	-1.02475	-0.012079	0
